<svg width="18" height="22" viewBox="0 0 18 22" fill="none" xmlns="http://www.w3.org/2000/svg">
<path d="M13.471 8.403V6.25C13.4555 5.05206 12.9692 3.90832 12.1174 3.06594C11.2655 2.22355 10.1164 1.75016 8.91836 1.74806C7.72032 1.74596 6.56956 2.21532 5.71474 3.05471C4.85992 3.8941 4.36969 5.03612 4.34998 6.234L4.34998 8.403" stroke="#A4A4A6" stroke-width="1.5" stroke-linecap="round" stroke-linejoin="round"/>
<path d="M8.90997 13.156V15.377" stroke="#A4A4A6" stroke-width="1.5" stroke-linecap="round" stroke-linejoin="round"/>
<path d="M1.25 14.095C1.25 18.795 3.165 20.367 8.91 20.367C14.655 20.367 16.571 18.799 16.571 14.095C16.571 9.391 14.65 7.824 8.91 7.824C3.17 7.824 1.25 9.392 1.25 14.095Z" stroke="#A4A4A6" stroke-width="1.5" stroke-linecap="round" stroke-linejoin="round"/>
</svg>
