<svg width="20" height="24" viewBox="0 0 20 24" fill="none" xmlns="http://www.w3.org/2000/svg">
<path d="M10.0351 12.2699C11.2806 12.2699 12.5261 12.2506 13.7716 12.2699C15.1302 12.3316 16.4197 12.8868 17.3981 13.8315C18.3764 14.7762 18.9764 16.0455 19.0855 17.4011C19.1947 18.7567 18.8054 20.1055 17.9907 21.1946C17.1761 22.2836 15.9921 23.0379 14.6609 23.3161C14.2487 23.4037 13.8281 23.4456 13.4067 23.441C11.1589 23.441 8.91117 23.4485 6.6634 23.441C5.27957 23.46 3.93774 22.9658 2.8969 22.0536C1.85607 21.1415 1.19005 19.8761 1.02736 18.5017C0.864658 17.1273 1.21684 15.7414 2.01593 14.6114C2.81501 13.4815 4.00432 12.6876 5.35435 12.383C5.77585 12.2971 6.20529 12.2563 6.63541 12.2613C7.76898 12.2613 8.9015 12.2613 10.0351 12.2613V12.2699ZM10.0437 21.6152H13.3303C13.6482 21.6212 13.966 21.5981 14.2798 21.5463C15.2065 21.3576 16.0289 20.8281 16.5843 20.0626C17.1397 19.2971 17.3878 18.3511 17.2796 17.4115C17.1714 16.4719 16.7148 15.6071 15.9999 14.9878C15.2851 14.3685 14.364 14.0398 13.4186 14.0667H6.64941C6.42507 14.066 6.20097 14.0811 5.97875 14.1119C5.46276 14.1898 4.96854 14.3739 4.52729 14.6526C4.08603 14.9312 3.7073 15.2982 3.41506 15.7306C3.12281 16.1629 2.92337 16.6512 2.82933 17.1645C2.73529 17.6778 2.74869 18.205 2.86868 18.7129C3.05593 19.5304 3.51347 20.261 4.16732 20.7863C4.82117 21.3116 5.6331 21.601 6.4718 21.6077C7.66566 21.6335 8.85413 21.6163 10.0437 21.6163V21.6152Z" fill="#C6CEDD"/>
<path d="M15.6222 5.69671C15.6186 6.80222 15.2871 7.88184 14.6698 8.79893C14.0524 9.71602 13.177 10.4294 12.1541 10.8488C11.1312 11.2682 10.0069 11.3748 8.92346 11.1551C7.84 10.9354 6.84604 10.3993 6.06735 9.61453C5.28865 8.8298 4.7602 7.83174 4.54886 6.74662C4.33752 5.6615 4.4528 4.53811 4.88008 3.51851C5.30737 2.49891 6.02749 1.62893 6.94931 1.01869C7.87113 0.408439 8.95325 0.0853114 10.0588 0.0902037C10.7923 0.0926015 11.5182 0.239545 12.1949 0.522677C12.8716 0.805808 13.4859 1.21957 14.0026 1.74026C14.5193 2.26096 14.9283 2.8784 15.2062 3.55728C15.4841 4.23616 15.6255 4.96317 15.6222 5.69671ZM10.0394 1.91708C9.29324 1.91601 8.56353 2.13618 7.94251 2.54975C7.3215 2.96333 6.83704 3.55175 6.55038 4.24062C6.26372 4.92948 6.18772 5.68789 6.33201 6.41993C6.47629 7.15198 6.83441 7.82481 7.36102 8.35338C7.88763 8.88195 8.55912 9.24249 9.29062 9.38949C10.0221 9.53648 10.7808 9.46333 11.4707 9.17923C12.1607 8.89513 12.7508 8.41285 13.1667 7.79337C13.5826 7.17389 13.8055 6.44501 13.8072 5.69888C13.8106 5.20252 13.7156 4.7104 13.5276 4.251C13.3396 3.7916 13.0624 3.37402 12.712 3.02244C12.3616 2.67085 11.945 2.39225 11.4863 2.2027C11.0275 2.01315 10.5357 1.91641 10.0394 1.91813V1.91708Z" fill="#C6CEDD"/>
</svg>
